<svg width="480" color="white" height="340" xmlns="http://www.w3.org/2000/svg" version="1.1" xml:space="preserve">
 <g>
  <title>Layer 1</title>
  <g id="svg_27">
   <path d="m452.429,72.986c-18.756,-37.521 -63.94,-72.986 -92.962,-72.986c-16.478,0 -44.834,25.549 -59.076,39.475c-16.461,-14.105 -36.498,-22.408 -60.391,-22.408s-43.93,8.303 -60.39,22.409c-14.243,-13.927 -42.599,-39.476 -59.077,-39.476c-29.022,0 -74.206,35.465 -92.962,72.986c-5.649,11.281 -9.438,26.53 -9.438,37.948c0,23.526 19.14,42.667 42.667,42.667c21.205,0 30.694,-13.943 38.306,-25.148c0.93,-1.357 1.852,-2.722 2.927,-4.25l34.133,-51.2c2.62,-3.925 1.562,-9.225 -2.364,-11.836c-3.942,-2.628 -9.225,-1.562 -11.836,2.364l-34.005,51.012c-1.007,1.425 -1.988,2.867 -2.97,4.309c-7.672,11.298 -12.587,17.681 -24.192,17.681c-14.114,0 -25.6,-11.486 -25.6,-25.6c0,-8.866 3.14,-21.333 7.637,-30.319c16.811,-33.63 57.455,-63.548 77.696,-63.548c7.279,0 28.945,16.947 47.01,34.509c-32.06,37.274 -47.01,99.678 -47.01,161.758c0,78.788 34.611,110.933 119.467,110.933s119.467,-32.145 119.467,-110.933c0,-62.089 -14.95,-124.484 -47.01,-161.758c18.065,-17.562 39.723,-34.509 47.01,-34.509c20.241,0 60.885,29.918 77.705,63.548c4.489,8.986 7.629,21.453 7.629,30.319c0,14.114 -11.486,25.6 -25.6,25.6c-12.023,0 -16.768,-6.315 -24.772,-18.406l-36.395,-54.596c-2.611,-3.925 -7.91,-4.992 -11.836,-2.364c-3.925,2.611 -4.983,7.91 -2.364,11.836l36.361,54.545c8.09,12.211 17.246,26.052 39.006,26.052c23.526,0 42.667,-19.14 42.667,-42.667c0,-11.417 -3.789,-26.666 -9.438,-37.947zm-110.029,140.347c0,69.308 -26.803,93.867 -102.4,93.867s-102.4,-24.559 -102.4,-93.867c0,-89.199 31.667,-179.2 102.4,-179.2s102.4,90.001 102.4,179.2z" id="svg_8"/>
   <path d="m283.614,252.092c-1.459,2.842 -7.159,3.874 -9.481,3.908c-9.992,0 -20.318,-8.508 -24.047,-18.287c14.029,-3.174 24.047,-12.689 24.047,-24.38c0,-14.353 -14.993,-25.6 -34.133,-25.6s-34.133,11.247 -34.133,25.6c0,11.691 10.018,21.205 24.047,24.38c-3.721,9.779 -14.046,18.287 -23.988,18.287c-2.449,-0.034 -8.03,-1.067 -9.591,-4.002c-2.21,-4.164 -7.373,-5.743 -11.537,-3.533s-5.751,7.373 -3.533,11.537c6.741,12.698 22.793,13.065 24.602,13.065c13.252,0 26.069,-7.569 34.133,-18.398c8.064,10.829 20.881,18.398 34.133,18.398c1.826,0 18.057,-0.375 24.653,-13.158c2.159,-4.19 0.512,-9.335 -3.678,-11.494s-9.327,-0.522 -11.494,3.677zm-43.614,-30.225c-10.257,0 -17.067,-5.137 -17.067,-8.533c0,-3.396 6.81,-8.533 17.067,-8.533c10.419,0 17.067,5.052 17.067,8.533c0,3.481 -6.648,8.533 -17.067,8.533z" id="svg_9"/>
   <path d="m278.4,153.6c7.057,0 12.8,-5.743 12.8,-12.8s-5.743,-12.8 -12.8,-12.8c-7.057,0 -12.8,5.743 -12.8,12.8s5.743,12.8 12.8,12.8z" id="svg_10"/>
   <path transform="rotate(-180 201.6 140.8)" d="m201.6,153.6c7.057,0 12.8,-5.743 12.8,-12.8s-5.743,-12.8 -12.8,-12.8s-12.8,5.743 -12.8,12.8s5.743,12.8 12.8,12.8z" id="svg_11"/>
   <g id="svg_12"/>
   <g id="svg_13"/>
   <g id="svg_14"/>
   <g id="svg_15"/>
   <g id="svg_16"/>
   <g id="svg_17"/>
   <g id="svg_18"/>
   <g id="svg_19"/>
   <g id="svg_20"/>
   <g id="svg_21"/>
   <g id="svg_22"/>
   <g id="svg_23"/>
   <g id="svg_24"/>
   <g id="svg_25"/>
   <g id="svg_26"/>
  </g>
 </g>

</svg>